<?xml version="1.0" encoding="UTF-8"?>
<!DOCTYPE svg PUBLIC "-//W3C//DTD SVG 1.1//EN" "http://www.w3.org/Graphics/SVG/1.1/DTD/svg11.dtd">
<!-- Creator: CorelDRAW 2020 (64-Bit) -->
<svg xmlns="http://www.w3.org/2000/svg" xml:space="preserve" width="1191px" height="1684px" version="1.1" style="shape-rendering:geometricPrecision; text-rendering:geometricPrecision; image-rendering:optimizeQuality; fill-rule:evenodd; clip-rule:evenodd"
viewBox="0 0 1191 1684.414"
 xmlns:xlink="http://www.w3.org/1999/xlink"
 xmlns:xodm="http://www.corel.com/coreldraw/odm/2003">
 <defs>
  <style type="text/css">
   <![CDATA[
    .fil0 {fill:none}
    .fil3 {fill:#D9920F}
    .fil2 {fill:#8A008C;fill-rule:nonzero}
    .fil1 {fill:#D9920F;fill-rule:nonzero}
   ]]>
  </style>
 </defs>
 <g id="Layer_x0020_1">
  <metadata id="CorelCorpID_0Corel-Layer"/>
  <rect class="fil0" x="102.683" y="472.429" width="1000.377" height="800.302"/>
  <path class="fil1" d="M375.748 660.287c54.817,2.462 104.23,25.692 140.551,62.013 21.312,21.313 38.114,47.133 48.862,75.906l-13.826 0c-10.127,-25.218 -25.251,-47.892 -44.15,-66.792 -33.987,-33.987 -80.178,-55.771 -131.437,-58.223l0 -12.904z"/>
  <path class="fil2" d="M365.387 849.71l19.694 36.667 -43.712 0 21.855 -40.692 2.163 4.025zm-169.342 -82.9l40.276 0 6.537 8.8 44.993 0 20.109 -27.07 46.991 0c1.115,-3.821 4.643,-6.613 8.824,-6.613 5.076,0 9.191,4.115 9.191,9.191 0,5.076 -4.115,9.191 -9.191,9.191 -4.181,0 -7.709,-2.792 -8.824,-6.612l-44.419 0 -20.109 27.07 -43.735 0 9.742 13.114 44.419 0c1.115,-3.821 4.643,-6.613 8.823,-6.613 5.076,0 9.192,4.115 9.192,9.191 0,5.076 -4.116,9.191 -9.192,9.191 -4.18,0 -7.708,-2.792 -8.823,-6.613l-46.991 0 -20.11 -27.07 -40.817 0c-10.416,17.844 -18.136,37.453 -22.614,58.271l110.216 0c1.115,-3.821 4.643,-6.613 8.824,-6.613 5.076,0 9.191,4.115 9.191,9.191 0,5.076 -4.115,9.191 -9.191,9.191 -4.181,0 -7.709,-2.792 -8.824,-6.613l-111.253 0c-1.297,6.92 -2.241,13.966 -2.806,21.118l92.003 0 0 12.891 -105.568 0 0.305 -6.723c2.489,-54.854 25.738,-104.281 62.118,-140.571 35.856,-35.769 84.478,-58.776 138.554,-61.644l0 -30.039 5.157 0 0 70.682 -87.178 23.359 0 19.855c3.821,1.115 6.613,4.643 6.613,8.824 0,5.076 -4.115,9.191 -9.191,9.191 -5.076,0 -9.191,-4.115 -9.191,-9.191 0,-4.181 2.792,-7.709 6.613,-8.824l0 -23.804 87.177 -23.359 0 -23.823c-50.526,2.851 -95.949,24.427 -129.491,57.887 -10.744,10.718 -20.268,22.655 -28.35,35.587zm384.17 15.637c-27.351,-64.056 -82.902,-113.191 -151.062,-131.784 72.853,15.086 132.911,65.119 161.882,131.784l-10.82 0zm-200.63 289.233c49.724,-3.329 94.462,-24.862 127.6,-57.999 11.3,-11.301 21.249,-23.95 29.588,-37.685l-39.623 0 -6.537 -8.8 -44.993 0 -20.109 27.07 -46.991 0c-1.115,3.821 -4.643,6.613 -8.824,6.613 -5.076,0 -9.191,-4.115 -9.191,-9.191 0,-5.076 4.115,-9.191 9.191,-9.191 4.181,0 7.709,2.792 8.824,6.613l44.419 0 20.109 -27.07 43.734 0 -9.741 -13.114 -44.419 0c-1.115,3.821 -4.643,6.612 -8.824,6.612 -5.076,0 -9.191,-4.115 -9.191,-9.191 0,-5.076 4.115,-9.191 9.191,-9.191 4.181,0 7.709,2.792 8.824,6.613l46.991 0 20.11 27.07 40.077 0c4.354,-7.68 8.213,-15.679 11.535,-23.95l94.179 -0.001 17.891 17.891 17.516 -20.211 45.469 0 30.817 27.635 35.683 -27.635 68.235 0 17.327 19.233 28.238 -29.677 28.304 22.82 54.49 0 62.09 -72.818 -74.082 0 0 -12.891 101.97 0 -84.074 98.599 -66.163 0 -21.196 -17.402 -29.899 32.461 -23.537 -27.434 -59.356 0 -38.596 30.634 -36.47 -30.634 -33.416 0 -22.703 26.196 -23.875 -23.875 -80.323 0c-10.646,23.615 -25.477,44.937 -43.555,63.014 -35.472,35.472 -83.431,58.454 -136.714,61.803l0 30.361 -5.157 0 0 -73.26 87.178 -23.359 0 -19.855c-3.821,-1.115 -6.613,-4.643 -6.613,-8.823 0,-5.076 4.115,-9.192 9.191,-9.192 5.076,0 9.191,4.116 9.191,9.192 0,4.18 -2.792,7.708 -6.613,8.823l0 23.804 -87.177 23.36 0 26.032zm208.714 -102.544c-29.911,63.631 -88.515,111.102 -159.146,125.728 65.996,-18.003 120.172,-64.639 148.374,-125.728l10.772 0zm265.573 -119.688c0.479,-0.338 1.005,-0.628 1.576,-0.867 0.536,-0.225 1.137,-0.415 1.799,-0.568 0.596,-0.137 1.247,-0.241 1.951,-0.311 0.716,-0.071 1.436,-0.107 2.157,-0.107l70.164 0 0 -17.615 -73.316 0c-2.439,0 -4.706,0.127 -6.799,0.381 -2.071,0.251 -3.985,0.627 -5.737,1.128 -1.719,0.491 -3.274,1.098 -4.664,1.819 -1.36,0.706 -2.578,1.533 -3.653,2.479 -1.07,0.94 -2,1.988 -2.792,3.14 -0.8,1.166 -1.47,2.452 -2.01,3.858 -0.554,1.445 -0.968,3.004 -1.243,4.675 -0.278,1.689 -0.417,3.528 -0.417,5.514l0 6.032c0,1.986 0.139,3.824 0.417,5.513 0.275,1.671 0.69,3.231 1.243,4.676 0.54,1.406 1.21,2.693 2.01,3.859 0.792,1.151 1.722,2.199 2.792,3.139 1.074,0.946 2.292,1.773 3.652,2.478 1.39,0.722 2.946,1.329 4.664,1.82 1.753,0.5 3.667,0.877 5.739,1.129 2.093,0.253 4.359,0.38 6.798,0.38l46.006 0c0.72,0 1.439,0.036 2.154,0.107 0.705,0.07 1.358,0.174 1.954,0.311 0.662,0.153 1.264,0.343 1.801,0.568l0 0.008c0.589,0.248 1.114,0.534 1.575,0.859 0.331,0.234 0.642,0.499 0.93,0.789 0.296,0.299 0.561,0.615 0.792,0.944 0.506,0.716 0.886,1.522 1.141,2.369 0.252,0.841 0.38,1.743 0.381,2.652 0,0.907 -0.125,1.81 -0.378,2.654 -0.252,0.846 -0.633,1.652 -1.14,2.372 -0.232,0.329 -0.498,0.646 -0.793,0.944 -0.272,0.273 -0.583,0.536 -0.933,0.784l0 0.007c-0.479,0.338 -1.005,0.628 -1.576,0.867 -0.536,0.226 -1.137,0.416 -1.8,0.568 -0.596,0.137 -1.248,0.242 -1.953,0.312 -0.716,0.07 -1.435,0.106 -2.155,0.106l-70.164 0 0 17.615 73.316 0c2.439,0 4.706,-0.127 6.798,-0.38 2.072,-0.251 3.985,-0.628 5.739,-1.129 1.718,-0.491 3.273,-1.097 4.664,-1.819 1.359,-0.706 2.578,-1.533 3.653,-2.478 1.069,-0.94 1.999,-1.988 2.79,-3.14 0.801,-1.165 1.471,-2.453 2.01,-3.859 0.554,-1.445 0.969,-3.004 1.244,-4.675 0.278,-1.689 0.417,-3.528 0.417,-5.514l0 -6.463c0,-1.986 -0.139,-3.825 -0.417,-5.514 -0.275,-1.671 -0.69,-3.23 -1.244,-4.675 -0.539,-1.406 -1.209,-2.693 -2.01,-3.859 -0.791,-1.152 -1.721,-2.199 -2.79,-3.139 -1.075,-0.946 -2.294,-1.773 -3.654,-2.479 -1.39,-0.721 -2.945,-1.328 -4.663,-1.819 -1.754,-0.501 -3.667,-0.878 -5.739,-1.128 -2.093,-0.254 -4.359,-0.382 -6.798,-0.382l-46.006 0c-0.721,0 -1.44,-0.035 -2.155,-0.106 -0.704,-0.07 -1.356,-0.174 -1.953,-0.311 -0.634,-0.146 -1.235,-0.339 -1.798,-0.575l-0.002 0.006c-0.57,-0.239 -1.097,-0.529 -1.575,-0.866 -0.344,-0.243 -0.666,-0.517 -0.964,-0.817 -0.304,-0.304 -0.575,-0.628 -0.813,-0.965 -0.483,-0.684 -0.848,-1.447 -1.094,-2.249 -0.247,-0.806 -0.372,-1.656 -0.373,-2.507 -0.001,-0.845 0.123,-1.694 0.37,-2.503 0.247,-0.81 0.612,-1.576 1.093,-2.258 0.239,-0.338 0.511,-0.663 0.815,-0.968 0.298,-0.299 0.621,-0.574 0.966,-0.817zm-157.05 31.2l0 13.31c0,1.968 0.139,3.79 0.417,5.465 0.276,1.668 0.688,3.211 1.234,4.628 0.538,1.393 1.208,2.673 2.011,3.837 0.792,1.149 1.725,2.197 2.8,3.142 1.075,0.945 2.293,1.772 3.654,2.478 1.389,0.722 2.945,1.329 4.663,1.819 1.752,0.501 3.666,0.878 5.737,1.129 2.093,0.253 4.36,0.38 6.799,0.38l76.473 0 0 -17.265 -73.32 0c-1.613,0 -3.039,-0.156 -4.274,-0.468 -1.345,-0.34 -2.471,-0.866 -3.375,-1.578 -0.458,-0.361 -0.869,-0.766 -1.23,-1.212l-0.008 -0.008c-0.362,-0.447 -0.664,-0.929 -0.907,-1.445 -0.241,-0.51 -0.423,-1.054 -0.544,-1.628 -0.119,-0.567 -0.179,-1.142 -0.179,-1.726 -0.287,-6.058 -0.426,-12.152 -0.423,-18.273 0.004,-6.149 0.152,-12.27 0.432,-18.357 0.013,-1.1 0.277,-2.111 0.793,-3.031 0.51,-0.908 1.254,-1.707 2.231,-2.397 0.478,-0.338 1.003,-0.628 1.574,-0.866 0.538,-0.226 1.139,-0.416 1.801,-0.569 0.596,-0.137 1.248,-0.241 1.952,-0.311 0.716,-0.072 1.435,-0.107 2.157,-0.107l73.32 0 0 -17.615 -76.473 0c-2.439,0 -4.706,0.127 -6.799,0.381 -2.071,0.251 -3.985,0.627 -5.737,1.128 -1.718,0.491 -3.274,1.098 -4.664,1.819 -1.36,0.705 -2.578,1.533 -3.653,2.479 -1.069,0.94 -2.001,1.988 -2.792,3.14 -0.8,1.165 -1.47,2.452 -2.009,3.858 -0.554,1.445 -0.969,3.005 -1.244,4.675 -0.278,1.689 -0.417,3.528 -0.417,5.514l0 27.674zm-94.457 -8.868l49.596 45.056 33.524 0 -56.077 -45.016 49.569 -41.84 -30.289 0 -46.323 41.8zm-28.517 -41.8l0 86.856 23.687 0 0 -86.856 -23.687 0zm-129.06 50.668l0 13.31c0,1.968 0.139,3.79 0.417,5.465 0.276,1.668 0.688,3.211 1.234,4.628 0.537,1.393 1.208,2.673 2.01,3.836 0.792,1.15 1.726,2.198 2.8,3.143 1.076,0.945 2.294,1.772 3.654,2.478 1.39,0.722 2.945,1.329 4.663,1.819 1.754,0.501 3.666,0.878 5.738,1.129 2.093,0.253 4.36,0.38 6.799,0.38l76.473 0 0 -17.265 -73.32 0c-1.613,0 -3.039,-0.156 -4.275,-0.468 -1.344,-0.34 -2.47,-0.866 -3.374,-1.578 -0.459,-0.361 -0.869,-0.766 -1.231,-1.212l-0.007 -0.008c-0.362,-0.447 -0.664,-0.929 -0.907,-1.445 -0.242,-0.511 -0.423,-1.054 -0.544,-1.629 -0.119,-0.566 -0.179,-1.141 -0.179,-1.725 -0.288,-6.058 -0.427,-12.152 -0.423,-18.273 0.004,-6.149 0.151,-12.27 0.431,-18.357 0.013,-1.1 0.278,-2.111 0.794,-3.031 0.509,-0.908 1.254,-1.708 2.23,-2.397 0.479,-0.338 1.004,-0.627 1.574,-0.866 0.538,-0.226 1.139,-0.416 1.802,-0.569 0.596,-0.137 1.247,-0.241 1.952,-0.311 0.716,-0.071 1.435,-0.107 2.157,-0.107l73.32 0 0 -17.615 -76.473 0c-2.439,0 -4.706,0.127 -6.798,0.381 -2.072,0.251 -3.986,0.627 -5.738,1.128 -1.719,0.491 -3.274,1.098 -4.664,1.819 -1.36,0.705 -2.578,1.533 -3.654,2.479 -1.068,0.94 -2,1.988 -2.791,3.14 -0.8,1.166 -1.471,2.453 -2.01,3.858 -0.554,1.445 -0.968,3.004 -1.243,4.675 -0.278,1.689 -0.417,3.528 -0.417,5.514l0 27.674zm-51.145 21.839l7.711 14.349 26.17 0 -47.186 -86.856 -33.761 0 -47.627 86.856 26.16 0 8.524 -15.646 59.31 0 0.696 1.299 0.003 -0.002z"/>
  <path class="fil3" d="M137.103 872.764c0,-106.114 71.799,-195.458 169.466,-222.101 -103.097,21.349 -180.585,112.675 -180.585,222.101 0,109.425 77.488,200.752 180.585,222.1 -97.667,-26.642 -169.466,-115.987 -169.466,-222.1zm411.581 -81.003l476.834 0 62.947 66.307 -110.679 0 0 -12.89 80.713 0 -38.472 -40.526 -466.242 0 -5.101 -12.891zm-176.367 13.889c-5.076,0 -9.191,-4.115 -9.191,-9.191 0,-5.076 4.115,-9.191 9.191,-9.191 4.181,0 7.709,2.792 8.824,6.613l92.033 0 20.11 -27.071 48.851 0 0 5.157 -46.279 0 -20.109 27.07 -94.606 0c-1.115,3.821 -4.643,6.613 -8.824,6.613zm105.932 -104.843l-63.626 0c-1.115,3.821 -4.644,6.613 -8.824,6.613 -5.076,0 -9.191,-4.116 -9.191,-9.191 0,-5.076 4.115,-9.191 9.191,-9.191 4.18,0 7.709,2.791 8.824,6.612l63.626 0 0 5.157zm54.433 52.89l-63.626 0c-1.115,3.82 -4.643,6.612 -8.824,6.612 -5.076,0 -9.191,-4.115 -9.191,-9.191 0,-5.076 4.115,-9.191 9.191,-9.191 4.181,0 7.709,2.792 8.824,6.613l63.626 0 0 5.157zm-151.73 -123.271l0 88.039 39.723 0 0 37.642c3.821,1.115 6.612,4.643 6.612,8.824 0,5.076 -4.115,9.191 -9.191,9.191 -5.076,0 -9.191,-4.115 -9.191,-9.191 0,-4.181 2.792,-7.709 6.613,-8.824l0 -32.486 -39.723 0 0 -93.195 5.157 0zm-68.155 356.273c-3.822,-1.114 -6.613,-4.643 -6.613,-8.824 0,-5.075 4.115,-9.19 9.191,-9.19 5.075,0 9.191,4.115 9.191,9.19 0,4.181 -2.792,7.71 -6.613,8.824l0 32.486 39.722 0 0 95.773 -5.156 0 0 -30.369c-52.532,-3.128 -99.957,-25.288 -135.371,-59.773 -36.228,-35.276 -59.906,-83.442 -63.651,-137.309l-0.477 -6.849 104.168 0.001 0 12.84 -90.256 0c0.755,7.27 1.899,14.42 3.408,21.431l95.094 0c1.115,-3.821 4.644,-6.613 8.824,-6.613 5.076,0 9.191,4.115 9.191,9.191 0,5.076 -4.115,9.191 -9.191,9.191 -4.18,0 -7.709,-2.792 -8.824,-6.613l-93.913 0c4.383,18.015 11.198,35.053 20.077,50.753l46.017 0 20.109 -27.07 94.606 0c1.115,-3.821 4.644,-6.613 8.824,-6.613 5.076,0 9.191,4.115 9.191,9.191 0,5.076 -4.115,9.191 -9.191,9.191 -4.18,0 -7.709,-2.791 -8.824,-6.612l-92.034 0 -20.108 27.07 -45.571 0c2.721,4.492 5.615,8.866 8.672,13.114l61.126 0c1.115,-3.821 4.643,-6.613 8.824,-6.613 5.076,0 9.191,4.115 9.191,9.191 0,5.076 -4.115,9.191 -9.191,9.191 -4.181,0 -7.709,-2.792 -8.824,-6.613l-57.289 0c5.817,7.562 12.164,14.693 18.986,21.336 10.221,9.953 21.507,18.812 33.666,26.397l59.07 0c1.115,-3.821 4.643,-6.613 8.824,-6.613 5.076,0 9.191,4.116 9.191,9.192 0,5.075 -4.115,9.19 -9.191,9.19 -4.181,0 -7.709,-2.791 -8.824,-6.612l-50.314 0c25.166,13.968 53.664,22.646 83.985,24.56l0 -47.374 -39.722 0 0 -37.643z"/>
 </g>
</svg>
